<mxfile host="Electron" modified="2024-04-05T08:49:30.399Z" agent="Mozilla/5.0 (Windows NT 10.0; Win64; x64) AppleWebKit/537.36 (KHTML, like Gecko) draw.io/24.1.0 Chrome/120.0.6099.109 Electron/28.1.0 Safari/537.36" etag="1pKWunHwptFAXKYlxzaL" version="24.1.0" type="device" pages="2">
  <diagram name="cloud_ep" id="Hip2UEcNGT7Nv8G9Bpkv">
    <mxGraphModel dx="1232" dy="1187" grid="1" gridSize="10" guides="1" tooltips="1" connect="1" arrows="1" fold="1" page="1" pageScale="1" pageWidth="1169" pageHeight="827" math="0" shadow="0">
      <root>
        <mxCell id="0" />
        <mxCell id="1" parent="0" />
        <mxCell id="rPuo4FAIBBt9wYeMWXON-1" value="&lt;font style=&quot;font-size: 17px;&quot;&gt;&lt;span style=&quot;background-color: initial;&quot;&gt;Exastro ITA system&lt;/span&gt;&lt;br style=&quot;&quot;&gt;&lt;/font&gt;&lt;div style=&quot;font-size: 17px;&quot;&gt;&lt;font style=&quot;font-size: 17px;&quot;&gt;(+ Terraform Cloud/EP driver)&lt;/font&gt;&lt;/div&gt;" style="whiteSpace=wrap;html=1;fillColor=#f5f5f5;fontSize=16;strokeColor=#666666;verticalAlign=top;gradientColor=#EDEDED;" parent="1" vertex="1">
          <mxGeometry x="39" y="70" width="370" height="610" as="geometry" />
        </mxCell>
        <mxCell id="rPuo4FAIBBt9wYeMWXON-7" value="" style="group" parent="1" vertex="1" connectable="0">
          <mxGeometry x="89" y="148" width="270" height="194" as="geometry" />
        </mxCell>
        <mxCell id="rPuo4FAIBBt9wYeMWXON-2" value="Web container group" style="whiteSpace=wrap;html=1;fontSize=14;verticalAlign=top;strokeColor=none;" parent="rPuo4FAIBBt9wYeMWXON-7" vertex="1">
          <mxGeometry width="270" height="194" as="geometry" />
        </mxCell>
        <mxCell id="rPuo4FAIBBt9wYeMWXON-3" value="ita-api-organization&lt;br&gt;(Terraform Cloud/EP&lt;br&gt;driver menu)" style="whiteSpace=wrap;html=1;fillColor=#fff2cc;fontSize=14;strokeColor=#d6b656;verticalAlign=middle;gradientColor=#ffd966;" parent="rPuo4FAIBBt9wYeMWXON-7" vertex="1">
          <mxGeometry x="21" y="34" width="228" height="60" as="geometry" />
        </mxCell>
        <mxCell id="rPuo4FAIBBt9wYeMWXON-5" value="" style="whiteSpace=wrap;html=1;fillColor=#fff2cc;fontSize=14;strokeColor=#d6b656;verticalAlign=middle;gradientColor=#ffd966;" parent="rPuo4FAIBBt9wYeMWXON-7" vertex="1">
          <mxGeometry x="21" y="107" width="228" height="36" as="geometry" />
        </mxCell>
        <mxCell id="rPuo4FAIBBt9wYeMWXON-6" value="・&lt;br style=&quot;font-size: 10px;&quot;&gt;・&lt;br style=&quot;font-size: 10px;&quot;&gt;・" style="rounded=0;whiteSpace=wrap;html=1;strokeColor=none;strokeWidth=2;fontSize=10;fillColor=none;fontStyle=1" parent="rPuo4FAIBBt9wYeMWXON-7" vertex="1">
          <mxGeometry x="29.19999999999999" y="164.9999999999999" width="218.8" height="10" as="geometry" />
        </mxCell>
        <mxCell id="rPuo4FAIBBt9wYeMWXON-14" value="DBMS function" style="whiteSpace=wrap;html=1;fontSize=14;verticalAlign=middle;strokeColor=none;" parent="1" vertex="1">
          <mxGeometry x="89" y="610" width="270" height="44" as="geometry" />
        </mxCell>
        <mxCell id="rPuo4FAIBBt9wYeMWXON-15" value="" style="group" parent="1" vertex="1" connectable="0">
          <mxGeometry x="89" y="371" width="270" height="210" as="geometry" />
        </mxCell>
        <mxCell id="rPuo4FAIBBt9wYeMWXON-9" value="Backyard container group" style="whiteSpace=wrap;html=1;fontSize=14;verticalAlign=top;strokeColor=none;" parent="rPuo4FAIBBt9wYeMWXON-15" vertex="1">
          <mxGeometry width="270" height="210" as="geometry" />
        </mxCell>
        <mxCell id="rPuo4FAIBBt9wYeMWXON-10" value="ita-by-terraform-cloud-ep-execution" style="whiteSpace=wrap;html=1;fillColor=#fff2cc;fontSize=14;strokeColor=#d6b656;verticalAlign=middle;gradientColor=#ffd966;" parent="rPuo4FAIBBt9wYeMWXON-15" vertex="1">
          <mxGeometry x="21" y="34" width="228" height="36" as="geometry" />
        </mxCell>
        <mxCell id="rPuo4FAIBBt9wYeMWXON-11" value="" style="whiteSpace=wrap;html=1;fillColor=#fff2cc;fontSize=14;strokeColor=#d6b656;verticalAlign=middle;gradientColor=#ffd966;" parent="rPuo4FAIBBt9wYeMWXON-15" vertex="1">
          <mxGeometry x="21" y="77" width="228" height="36" as="geometry" />
        </mxCell>
        <mxCell id="rPuo4FAIBBt9wYeMWXON-12" value="・&lt;br style=&quot;font-size: 10px;&quot;&gt;・&lt;br style=&quot;font-size: 10px;&quot;&gt;・" style="rounded=0;whiteSpace=wrap;html=1;strokeColor=none;strokeWidth=2;fontSize=10;fillColor=none;fontStyle=1" parent="rPuo4FAIBBt9wYeMWXON-15" vertex="1">
          <mxGeometry x="29.19999999999999" y="174.9999999999999" width="218.8" height="10" as="geometry" />
        </mxCell>
        <mxCell id="rPuo4FAIBBt9wYeMWXON-13" value="" style="whiteSpace=wrap;html=1;fillColor=#fff2cc;fontSize=14;strokeColor=#d6b656;verticalAlign=middle;gradientColor=#ffd966;" parent="rPuo4FAIBBt9wYeMWXON-15" vertex="1">
          <mxGeometry x="21" y="120" width="228" height="36" as="geometry" />
        </mxCell>
        <mxCell id="rPuo4FAIBBt9wYeMWXON-16" value="&lt;span style=&quot;font-size: 18px;&quot;&gt;Terraform&lt;/span&gt;" style="whiteSpace=wrap;html=1;fillColor=#dae8fc;fontSize=16;strokeColor=#6c8ebf;verticalAlign=top;dashed=1;" parent="1" vertex="1">
          <mxGeometry x="509" y="70" width="590" height="270" as="geometry" />
        </mxCell>
        <mxCell id="rPuo4FAIBBt9wYeMWXON-17" value="Terraform Enterprise&lt;br&gt;or&lt;br&gt;Terraform Cloud" style="whiteSpace=wrap;html=1;fillColor=#dae8fc;fontSize=16;strokeColor=#6c8ebf;verticalAlign=top;" parent="1" vertex="1">
          <mxGeometry x="539" y="145" width="210" height="70" as="geometry" />
        </mxCell>
        <mxCell id="rPuo4FAIBBt9wYeMWXON-18" value="Terraform Enterprise&lt;br&gt;or&lt;br&gt;Terraform Cloud" style="whiteSpace=wrap;html=1;fillColor=#dae8fc;fontSize=16;strokeColor=#6c8ebf;verticalAlign=top;" parent="1" vertex="1">
          <mxGeometry x="849" y="145" width="210" height="70" as="geometry" />
        </mxCell>
        <mxCell id="rPuo4FAIBBt9wYeMWXON-19" value="(1) Direct input pattern" style="whiteSpace=wrap;html=1;fontSize=17;verticalAlign=middle;strokeColor=none;fillColor=none;align=left;fontColor=#333333;" parent="1" vertex="1">
          <mxGeometry x="539" y="101" width="180" height="44" as="geometry" />
        </mxCell>
        <mxCell id="rPuo4FAIBBt9wYeMWXON-20" value="(2) Through Cloud Agent pattern" style="whiteSpace=wrap;html=1;fontSize=17;verticalAlign=middle;strokeColor=none;fillColor=none;align=left;fontColor=#333333;" parent="1" vertex="1">
          <mxGeometry x="840" y="101" width="250" height="44" as="geometry" />
        </mxCell>
        <mxCell id="rPuo4FAIBBt9wYeMWXON-23" value="Terraform automation target" style="whiteSpace=wrap;html=1;fontSize=17;verticalAlign=bottom;strokeColor=#FFC5C2;fillColor=#FFF0F0;gradientColor=#FFF0F0;rounded=1;arcSize=6;container=0;" parent="1" vertex="1">
          <mxGeometry x="509" y="401" width="590" height="200" as="geometry" />
        </mxCell>
        <mxCell id="rPuo4FAIBBt9wYeMWXON-26" value="&lt;span style=&quot;font-size: 16px;&quot;&gt;Server&lt;br&gt;NW device&lt;br&gt;Storage&lt;/span&gt;" style="rounded=0;whiteSpace=wrap;html=1;strokeWidth=1;fontSize=14;strokeColor=#b85450;fillColor=#f8cecc;gradientColor=#FF9999;container=0;" parent="1" vertex="1">
          <mxGeometry x="539" y="450" width="219.84" height="77.73" as="geometry" />
        </mxCell>
        <mxCell id="rPuo4FAIBBt9wYeMWXON-27" value="&lt;span style=&quot;font-size: 16px;&quot;&gt;Cloud service&lt;br&gt;&lt;/span&gt;" style="rounded=0;whiteSpace=wrap;html=1;strokeWidth=1;fontSize=14;strokeColor=#b85450;fillColor=#f8cecc;gradientColor=#FF9999;container=0;" parent="1" vertex="1">
          <mxGeometry x="839.1600000000001" y="450" width="219.84" height="77.73" as="geometry" />
        </mxCell>
        <mxCell id="rPuo4FAIBBt9wYeMWXON-28" value="" style="edgeStyle=elbowEdgeStyle;html=1;fontColor=#333333;startArrow=classic;startFill=1;endArrow=none;endFill=0;strokeColor=#333333;strokeWidth=1;jumpStyle=gap;entryX=1;entryY=0.5;entryDx=0;entryDy=0;exitX=0;exitY=0.25;exitDx=0;exitDy=0;" parent="1" source="rPuo4FAIBBt9wYeMWXON-16" target="rPuo4FAIBBt9wYeMWXON-3" edge="1">
          <mxGeometry relative="1" as="geometry">
            <mxPoint x="469" y="90" as="sourcePoint" />
            <mxPoint x="329" y="220" as="targetPoint" />
            <Array as="points">
              <mxPoint x="459" y="190" />
              <mxPoint x="454" y="259" />
            </Array>
          </mxGeometry>
        </mxCell>
        <mxCell id="rPuo4FAIBBt9wYeMWXON-29" value="" style="edgeStyle=elbowEdgeStyle;html=1;fontColor=#333333;startArrow=classic;startFill=1;endArrow=none;endFill=0;strokeColor=#333333;strokeWidth=1;jumpStyle=gap;entryX=1;entryY=0.5;entryDx=0;entryDy=0;exitX=0;exitY=0.25;exitDx=0;exitDy=0;" parent="1" source="rPuo4FAIBBt9wYeMWXON-16" target="rPuo4FAIBBt9wYeMWXON-10" edge="1">
          <mxGeometry relative="1" as="geometry">
            <mxPoint x="489" y="280" as="sourcePoint" />
            <mxPoint x="379" y="386" as="targetPoint" />
            <Array as="points">
              <mxPoint x="459" y="350" />
              <mxPoint x="495" y="433" />
            </Array>
          </mxGeometry>
        </mxCell>
        <mxCell id="rPuo4FAIBBt9wYeMWXON-30" value="① https" style="whiteSpace=wrap;html=1;fontSize=17;verticalAlign=middle;strokeColor=none;fillColor=none;align=left;fontColor=#333333;" parent="1" vertex="1">
          <mxGeometry x="346" y="177" width="70" height="44" as="geometry" />
        </mxCell>
        <mxCell id="rPuo4FAIBBt9wYeMWXON-32" value="② https" style="whiteSpace=wrap;html=1;fontSize=17;verticalAlign=middle;strokeColor=none;fillColor=none;align=left;fontColor=#333333;" parent="1" vertex="1">
          <mxGeometry x="343" y="387" width="70" height="44" as="geometry" />
        </mxCell>
        <mxCell id="rPuo4FAIBBt9wYeMWXON-34" value="③Submit &lt;br&gt;&amp;nbsp; &amp;nbsp; automation &lt;br&gt;&amp;nbsp; &amp;nbsp; operation" style="whiteSpace=wrap;html=1;fontSize=17;verticalAlign=middle;strokeColor=none;fillColor=none;align=left;fontColor=#333333;" parent="1" vertex="1">
          <mxGeometry x="649" y="350" width="160" height="44" as="geometry" />
        </mxCell>
        <mxCell id="rPuo4FAIBBt9wYeMWXON-36" value="" style="endArrow=classic;html=1;rounded=0;exitX=0.5;exitY=1;exitDx=0;exitDy=0;" parent="1" source="rPuo4FAIBBt9wYeMWXON-17" edge="1">
          <mxGeometry width="50" height="50" relative="1" as="geometry">
            <mxPoint x="629" y="420" as="sourcePoint" />
            <mxPoint x="643" y="401" as="targetPoint" />
          </mxGeometry>
        </mxCell>
        <mxCell id="rPuo4FAIBBt9wYeMWXON-37" value="" style="endArrow=classic;html=1;rounded=0;exitX=0.5;exitY=1;exitDx=0;exitDy=0;" parent="1" source="rPuo4FAIBBt9wYeMWXON-39" edge="1">
          <mxGeometry width="50" height="50" relative="1" as="geometry">
            <mxPoint x="1129" y="440" as="sourcePoint" />
            <mxPoint x="954" y="400" as="targetPoint" />
          </mxGeometry>
        </mxCell>
        <mxCell id="rPuo4FAIBBt9wYeMWXON-38" value="④-1 Agent communication" style="whiteSpace=wrap;html=1;fontSize=17;verticalAlign=middle;strokeColor=none;fillColor=none;align=left;fontColor=#333333;" parent="1" vertex="1">
          <mxGeometry x="969" y="236" width="120" height="44" as="geometry" />
        </mxCell>
        <mxCell id="rPuo4FAIBBt9wYeMWXON-39" value="Terraform&lt;br&gt;Cloud Agents" style="whiteSpace=wrap;html=1;fillColor=#7EA6E0;fontSize=16;strokeColor=#6c8ebf;verticalAlign=top;fontColor=#FFFFFF;" parent="1" vertex="1">
          <mxGeometry x="881.5" y="280" width="145" height="50" as="geometry" />
        </mxCell>
        <mxCell id="rPuo4FAIBBt9wYeMWXON-40" value="" style="html=1;shadow=0;dashed=0;align=center;verticalAlign=middle;shape=mxgraph.arrows2.uTurnArrow;dy=5;arrowHead=22;dx2=15;rotation=90;fillColor=#7EA6E0;" parent="1" vertex="1">
          <mxGeometry x="924" y="221" width="45" height="50" as="geometry" />
        </mxCell>
        <mxCell id="rPuo4FAIBBt9wYeMWXON-41" value="④-2 Submit &lt;br&gt;&amp;nbsp; &amp;nbsp; &amp;nbsp; &amp;nbsp; automation &lt;br&gt;&amp;nbsp; &amp;nbsp; &amp;nbsp; &amp;nbsp; operation" style="whiteSpace=wrap;html=1;fontSize=17;verticalAlign=middle;strokeColor=none;fillColor=none;align=left;fontColor=#333333;" parent="1" vertex="1">
          <mxGeometry x="960" y="350" width="181" height="44" as="geometry" />
        </mxCell>
      </root>
    </mxGraphModel>
  </diagram>
  <diagram id="NIlsoJcz5rjUdY2pjUD3" name="cli">
    <mxGraphModel dx="1232" dy="1187" grid="1" gridSize="10" guides="1" tooltips="1" connect="1" arrows="1" fold="1" page="1" pageScale="1" pageWidth="1169" pageHeight="827" math="0" shadow="0">
      <root>
        <mxCell id="0" />
        <mxCell id="1" parent="0" />
        <mxCell id="506B-8NzCTK2B43F4g-_-33" value="&lt;font style=&quot;font-size: 17px;&quot;&gt;&lt;span style=&quot;background-color: initial;&quot;&gt;Exastro ITA system&lt;/span&gt;&lt;br style=&quot;&quot;&gt;&lt;/font&gt;&lt;div style=&quot;font-size: 17px;&quot;&gt;&lt;font style=&quot;font-size: 17px;&quot;&gt;(+ Terraform CLI driver)&lt;/font&gt;&lt;/div&gt;" style="whiteSpace=wrap;html=1;fillColor=#f5f5f5;fontSize=16;strokeColor=#666666;verticalAlign=top;gradientColor=#EDEDED;" parent="1" vertex="1">
          <mxGeometry x="180" y="60" width="370" height="610" as="geometry" />
        </mxCell>
        <mxCell id="506B-8NzCTK2B43F4g-_-34" value="" style="group" parent="1" vertex="1" connectable="0">
          <mxGeometry x="230" y="138" width="270" height="194" as="geometry" />
        </mxCell>
        <mxCell id="506B-8NzCTK2B43F4g-_-35" value="Web container group" style="whiteSpace=wrap;html=1;fontSize=14;verticalAlign=top;strokeColor=none;" parent="506B-8NzCTK2B43F4g-_-34" vertex="1">
          <mxGeometry width="270" height="194" as="geometry" />
        </mxCell>
        <mxCell id="506B-8NzCTK2B43F4g-_-36" value="ita-api-organization&lt;br&gt;(Terraform CLI driver menu)" style="whiteSpace=wrap;html=1;fillColor=#fff2cc;fontSize=14;strokeColor=#d6b656;verticalAlign=middle;gradientColor=#ffd966;" parent="506B-8NzCTK2B43F4g-_-34" vertex="1">
          <mxGeometry x="21" y="34" width="228" height="60" as="geometry" />
        </mxCell>
        <mxCell id="506B-8NzCTK2B43F4g-_-37" value="" style="whiteSpace=wrap;html=1;fillColor=#fff2cc;fontSize=14;strokeColor=#d6b656;verticalAlign=middle;gradientColor=#ffd966;" parent="506B-8NzCTK2B43F4g-_-34" vertex="1">
          <mxGeometry x="21" y="107" width="228" height="36" as="geometry" />
        </mxCell>
        <mxCell id="506B-8NzCTK2B43F4g-_-38" value="・&lt;br style=&quot;font-size: 10px;&quot;&gt;・&lt;br style=&quot;font-size: 10px;&quot;&gt;・" style="rounded=0;whiteSpace=wrap;html=1;strokeColor=none;strokeWidth=2;fontSize=10;fillColor=none;fontStyle=1" parent="506B-8NzCTK2B43F4g-_-34" vertex="1">
          <mxGeometry x="29.19999999999999" y="164.9999999999999" width="218.8" height="10" as="geometry" />
        </mxCell>
        <mxCell id="506B-8NzCTK2B43F4g-_-39" value="DBMS function" style="whiteSpace=wrap;html=1;fontSize=14;verticalAlign=middle;strokeColor=none;" parent="1" vertex="1">
          <mxGeometry x="230" y="600" width="270" height="44" as="geometry" />
        </mxCell>
        <mxCell id="506B-8NzCTK2B43F4g-_-40" value="" style="group;verticalAlign=top;" parent="1" vertex="1" connectable="0">
          <mxGeometry x="230" y="361" width="270" height="210" as="geometry" />
        </mxCell>
        <mxCell id="506B-8NzCTK2B43F4g-_-41" value="Backyard container group" style="whiteSpace=wrap;html=1;fontSize=14;verticalAlign=top;strokeColor=none;" parent="506B-8NzCTK2B43F4g-_-40" vertex="1">
          <mxGeometry width="270" height="210" as="geometry" />
        </mxCell>
        <mxCell id="506B-8NzCTK2B43F4g-_-42" value="ita-by-terraform-cli-execution" style="whiteSpace=wrap;html=1;fillColor=#fff2cc;fontSize=14;strokeColor=#d6b656;verticalAlign=top;gradientColor=#ffd966;" parent="506B-8NzCTK2B43F4g-_-40" vertex="1">
          <mxGeometry x="21" y="34" width="228" height="76" as="geometry" />
        </mxCell>
        <mxCell id="506B-8NzCTK2B43F4g-_-44" value="・&lt;br style=&quot;font-size: 10px;&quot;&gt;・&lt;br style=&quot;font-size: 10px;&quot;&gt;・" style="rounded=0;whiteSpace=wrap;html=1;strokeColor=none;strokeWidth=2;fontSize=10;fillColor=none;fontStyle=1" parent="506B-8NzCTK2B43F4g-_-40" vertex="1">
          <mxGeometry x="29.19999999999999" y="174.9999999999999" width="218.8" height="10" as="geometry" />
        </mxCell>
        <mxCell id="506B-8NzCTK2B43F4g-_-45" value="" style="whiteSpace=wrap;html=1;fillColor=#fff2cc;fontSize=14;strokeColor=#d6b656;verticalAlign=middle;gradientColor=#ffd966;" parent="506B-8NzCTK2B43F4g-_-40" vertex="1">
          <mxGeometry x="21" y="120" width="228" height="36" as="geometry" />
        </mxCell>
        <mxCell id="506B-8NzCTK2B43F4g-_-65" value="Terraform CLI" style="rounded=1;whiteSpace=wrap;html=1;fillColor=#A9C4EB;" parent="506B-8NzCTK2B43F4g-_-40" vertex="1">
          <mxGeometry x="78.6" y="70" width="120" height="30" as="geometry" />
        </mxCell>
        <mxCell id="P77b6PbMqfDeLrmF_FZa-1" value="" style="html=1;shadow=0;dashed=0;align=center;verticalAlign=middle;shape=mxgraph.arrows2.uTurnArrow;dy=5;arrowHead=22;dx2=23;rotation=-180;fillColor=#7EA6E0;direction=west;flipV=1;" parent="506B-8NzCTK2B43F4g-_-40" vertex="1">
          <mxGeometry x="10" y="54" width="35" height="46" as="geometry" />
        </mxCell>
        <mxCell id="506B-8NzCTK2B43F4g-_-51" value="Terraform automation target" style="whiteSpace=wrap;html=1;fontSize=17;verticalAlign=bottom;strokeColor=#FFC5C2;fillColor=#FFF0F0;gradientColor=#FFF0F0;rounded=1;arcSize=6;container=0;" parent="1" vertex="1">
          <mxGeometry x="747" y="309" width="291" height="361" as="geometry" />
        </mxCell>
        <mxCell id="506B-8NzCTK2B43F4g-_-52" value="&lt;span style=&quot;font-size: 16px;&quot;&gt;Server&lt;br&gt;NW device&lt;br&gt;Storage&lt;br&gt;&lt;/span&gt;" style="rounded=0;whiteSpace=wrap;html=1;strokeWidth=1;fontSize=14;strokeColor=#b85450;fillColor=#f8cecc;gradientColor=#FF9999;container=0;" parent="1" vertex="1">
          <mxGeometry x="782.58" y="359" width="219.84" height="77.73" as="geometry" />
        </mxCell>
        <mxCell id="506B-8NzCTK2B43F4g-_-53" value="&lt;span style=&quot;font-size: 16px;&quot;&gt;Cloud service&lt;br&gt;&lt;/span&gt;" style="rounded=0;whiteSpace=wrap;html=1;strokeWidth=1;fontSize=14;strokeColor=#b85450;fillColor=#f8cecc;gradientColor=#FF9999;container=0;" parent="1" vertex="1">
          <mxGeometry x="782.5800000000002" y="506.13" width="219.84" height="77.73" as="geometry" />
        </mxCell>
        <mxCell id="506B-8NzCTK2B43F4g-_-55" value="" style="edgeStyle=elbowEdgeStyle;html=1;fontColor=#333333;startArrow=classic;startFill=1;endArrow=none;endFill=0;strokeColor=#333333;strokeWidth=1;jumpStyle=gap;entryX=1;entryY=0.5;entryDx=0;entryDy=0;exitX=0;exitY=0.5;exitDx=0;exitDy=0;" parent="1" source="506B-8NzCTK2B43F4g-_-51" target="506B-8NzCTK2B43F4g-_-65" edge="1">
          <mxGeometry relative="1" as="geometry">
            <mxPoint x="650" y="127.50000000000011" as="sourcePoint" />
            <mxPoint x="520" y="376" as="targetPoint" />
            <Array as="points">
              <mxPoint x="571" y="470" />
              <mxPoint x="636" y="423" />
            </Array>
          </mxGeometry>
        </mxCell>
        <mxCell id="506B-8NzCTK2B43F4g-_-57" value="② Submit&amp;nbsp;&lt;br&gt;&amp;nbsp; &amp;nbsp; &amp;nbsp;automation&amp;nbsp;&lt;br&gt;&amp;nbsp; &amp;nbsp; &amp;nbsp;operation" style="whiteSpace=wrap;html=1;fontSize=17;verticalAlign=middle;strokeColor=none;fillColor=none;align=left;fontColor=#333333;" parent="1" vertex="1">
          <mxGeometry x="577" y="430" width="160" height="58.27" as="geometry" />
        </mxCell>
        <mxCell id="P77b6PbMqfDeLrmF_FZa-3" value="① Terraform command" style="whiteSpace=wrap;html=1;fontSize=17;verticalAlign=middle;strokeColor=none;fillColor=none;align=left;fontColor=#333333;" parent="1" vertex="1">
          <mxGeometry x="50" y="420" width="190" height="44" as="geometry" />
        </mxCell>
      </root>
    </mxGraphModel>
  </diagram>
</mxfile>
